<?xml version="1.0" encoding="utf-8"?>
<!-- Generator: Adobe Illustrator 27.0.1, SVG Export Plug-In . SVG Version: 6.00 Build 0)  -->
<svg version="1.1" id="Laag_1" xmlns="http://www.w3.org/2000/svg" xmlns:xlink="http://www.w3.org/1999/xlink" x="0px" y="0px"
	 viewBox="0 0 387 177.9" style="enable-background:new 0 0 387 177.9;" xml:space="preserve">
<style type="text/css">
	.st0{fill:#007C37;stroke:#F7F6F0;stroke-miterlimit:10;}
	.st1{fill:#F5B659;}
	.st2{fill:#007C37;}
	.st3{fill:#F7F6F0;}
	.st4{font-family:'AvenirNextCondensed-Heavy';}
	.st5{font-size:69.6192px;}
	.st6{letter-spacing:4;}
</style>
<path class="st0" d="M354.9,49c-1.7-0.7-3.4-1.5-4.8-2.5c-5.3,1.4-11.2,1.2-16.6-0.9c-1.9-0.7-3.7-1.7-5.3-2.8
	c-4,0.4-8.2-0.1-12.2-1.7c-7.7-3-12.6-9-13.8-15.7c-0.4-0.1-0.8-0.3-1.1-0.4c-6.4-2.5-11-7.2-12.9-12.6H15.6v146.3h349.3v-108
	C361.6,50.9,358.2,50.3,354.9,49z"/>
<text transform="matrix(1 0 0 1 74.7573 112.9554)" class="st3 st4 st5 st6">EAT ME</text>
<circle class="st3" cx="30.7" cy="22.4" r="3"/>
<circle class="st3" cx="30.7" cy="146.7" r="3"/>
<circle class="st3" cx="351.2" cy="149.7" r="3"/>
</svg>
