<?xml version="1.0" encoding="utf-8"?>
<!-- Generator: Adobe Illustrator 27.0.1, SVG Export Plug-In . SVG Version: 6.00 Build 0)  -->
<svg version="1.1" id="Laag_1" xmlns="http://www.w3.org/2000/svg" xmlns:xlink="http://www.w3.org/1999/xlink" x="0px" y="0px"
	 viewBox="0 0 818.4 404" style="enable-background:new 0 0 818.4 404;" xml:space="preserve">
<style type="text/css">
	.st0{fill:#008A3B;}
	.st1{fill:#FFCC00;}
	.st2{opacity:0.51;fill:#00FFFF;}
	.st3{fill:none;stroke:#000000;stroke-width:29.4181;stroke-miterlimit:10;}
	.st4{fill:none;stroke:#FFFFFF;stroke-width:30;stroke-miterlimit:10;}
	.st5{fill:#41C285;}
	.st6{fill:none;stroke:#41C285;stroke-width:39;stroke-miterlimit:10;}
	.st7{fill:none;}
	.st8{fill:#FFFFFF;}
</style>
<rect x="86.3" y="20.1" class="st0" width="645.8" height="337.2"/>
<g>
	<g>
		<g>
			<path class="st8" d="M102.2,58.5c-1.1,0-1.5,0-2.9-1.1c-10-6.4-24.4-22.9-0.6-42.4c0.4-0.4,2.5-1.6,3.5-1.8l75.1,0l369.8,0.1
				l92.5,0l46.2,0l38.6,0l11.5,0l1.4,0l0.7,0l0.4,0c0.1,0,0,0.2,0.1,0.3l0,2.9l0,5.8l0,23l0,145.8c0,0-4.6,68.9-11.5,117.2
				c-9.6,82-19.7,49.2-25-1.6c-1,5.3-8.5-121.5-8.5-121.5V58.5H540.9H177.3H102.2z"/>
		</g>
	</g>
</g>
<g>
	<path class="st8" d="M209.5,321.9h-38.1l-14.8-99.9l-6.4,17.2v82.7h-36.4V100.7h36.4v95.8h1.5l23.3-95.8h34.4l-27.1,88.2
		L209.5,321.9z"/>
	<path class="st8" d="M258.7,321.9h-36.4V100.7h36.4V321.9z"/>
	<path class="st8" d="M321.3,325.4c-28.2,0-45.7-14.3-45.7-46.3V144.3c0-31.7,17.5-47.5,45.1-47.5c25,0,43.4,9.6,43.4,48.9
		c0,13.4-0.9,23.9-2,30.3l-27.7-2.3c0.9-4.7,2-14.8,2-23.6c0-21-4.1-25.9-12.2-25.9c-8.2,0-12.2,3.8-12.2,15.4v142.7
		c0,10.5,2.9,16,12.5,16c7.6,0,11.9-5.8,11.9-26.8c0-7.6-0.9-16.3-2-22.4l27.4-2.6c1.2,5.8,2.6,16.6,2.6,28.8
		C364.4,315.5,346.1,325.4,321.3,325.4z"/>
	<path class="st8" d="M475.3,321.9h-38.1l-14.8-99.9l-6.4,17.2v82.7h-36.4V100.7h36.4v95.8h1.5l23.3-95.8H475L448,188.9L475.3,321.9
		z"/>
	<path class="st8" d="M561.5,321.9h-36.4V100.7h36.4V321.9z"/>
	<path class="st8" d="M672.1,129.2h-30.6v192.7h-36.4V129.2h-30.3v-28.5h97.2V129.2z"/>
</g>
</svg>
